<svg id="calendar" xmlns="http://www.w3.org/2000/svg" width="59" height="64" viewBox="0 0 59 64"><path d="M4.6 59.4h10.3V49.1H4.6v10.3zm12.5 0h11.5V49.1H17v10.3zM4.6 47h10.3V35.4H4.6V47zm12.5 0h11.5V35.4H17V47zM4.6 33h10.3V23H4.6V33zm26.3 26.3h11.4V49.1H30.9v10.3zM17 33.1h11.5V23H17V33zm27.5 26.3h10.3V49.1H44.6v10.3zM30.9 47h11.4V35.4H30.9V47zM18.3 16V5.7q0-.4-.4-.8t-.8-.3H15q-.5 0-.8.3t-.4.8V16q0 .5.4.8t.8.3H17q.5 0 .8-.3t.4-.8zm26.3 30.9h10.3V35.4H44.6V47zM30.9 33h11.4V23H30.9V33zm13.7 0h10.3V23H44.6V33zM45.7 16V5.7q0-.4-.3-.8t-.8-.3h-2.3q-.5 0-.8.3t-.4.8V16q0 .5.4.8t.8.3h2.3q.4 0 .8-.3t.3-.8zm13.7-2.3v45.7q0 1.9-1.3 3.2T54.9 64H4.6q-1.9 0-3.2-1.4T0 59.4V13.7q0-1.8 1.4-3.2t3.2-1.4H9V5.7q0-2.3 1.7-4t4-1.7h2.3q2.4 0 4 1.7t1.8 4v3.4h13.7V5.7q0-2.3 1.7-4t4-1.7h2.3q2.3 0 4 1.7t1.7 4v3.4h4.6q1.8 0 3.2 1.4t1.3 3.2z"/></svg>