<svg id="cog" xmlns="http://www.w3.org/2000/svg" width="64" height="64" viewBox="0 0 64 64"><path d="M36.6 32q0-3.8-2.7-6.5T27.4 23 21 25.5 18.3 32t2.7 6.5 6.4 2.6 6.5-2.6 2.7-6.5zm18.3-3.9v8q0 .4-.3.8t-.7.4l-6.6 1q-.7 2-1.4 3.3 1.2 1.8 3.8 4.9.3.4.3.9t-.3.8q-1 1.3-3.5 3.9t-3.4 2.5q-.4 0-1-.3L37 50.4q-1.6.9-3.3 1.4-.6 4.8-1 6.6-.3 1-1.3 1h-8q-.4 0-.8-.3t-.4-.7l-1-6.6q-1.8-.6-3.2-1.3l-5 3.8q-.4.3-1 .3-.5 0-.9-.4-4.5-4-5.9-6-.2-.3-.2-.8 0-.4.3-.8L7 44.2l2-2.5Q8 39.9 7.5 38l-6.6-1q-.4 0-.7-.4T0 36v-8q0-.4.3-.8t.7-.4l6.6-1Q8.1 24 9 22.4l-3.8-5q-.4-.4-.4-.8 0-.3.3-.8 1-1.3 3.6-3.9T12 9.4q.5 0 1 .4l4.9 3.8 3.2-1.4q.6-4.8 1-6.6.3-1 1.4-1h7.9q.5 0 .9.3t.4.7l1 6.6 3.2 1.3 5-3.8q.4-.3 1-.3.4 0 .8.4 4.6 4.2 6 6 .2.3.2.8 0 .4-.3.8l-1.9 2.4-1.9 2.5q1 1.8 1.5 3.5l6.5 1q.5 0 .8.5t.3.8z"/></svg>