<svg id="gift" xmlns="http://www.w3.org/2000/svg" width="64" height="64" viewBox="0 0 64 64"><path d="M33.1 48.4V23H21.7v25.5q0 1 .7 1.4t1.6.5h6.9q1 0 1.6-.5t.6-1.4zM17 18.3h7l-4.6-5.8q-1-1-2.4-1-1.5 0-2.5 1t-1 2.4 1 2.4 2.5 1zm24.5-3.4q0-1.5-1-2.5t-2.4-1q-1.5 0-2.5 1.1l-4.4 5.8H38q1.4 0 2.4-1t1-2.4zM55 24v11.4q0 .5-.4.9t-.8.3h-3.4v14.8q0 1.5-1 2.5t-2.4 1H8q-1.4 0-2.4-1t-1-2.5V36.6H1q-.5 0-.8-.4t-.3-.8V24q0-.5.3-.8t.8-.3H17q-3.4 0-5.7-2.4T8.9 15t2.3-5.7 5.7-2.3q3.8 0 6 2.7l4.5 5.9L32 9.6Q34.2 7 38 7q3.3 0 5.7 2.3t2.3 5.7-2.3 5.6T38 23h15.7q.5 0 .8.3t.4.8z"/></svg>