<svg id="group" xmlns="http://www.w3.org/2000/svg" width="69" height="64" viewBox="0 0 69 64"><path d="M21.2 32q-5.8.2-9.5 4.6H7Q4 36.6 2 35T0 31q0-12.6 4.4-12.6L6 19l3.5 1.6q2 .9 4.2.7 2.4 0 4.8-.8l-.2 2.4q0 5 2.9 9.1zm38.2 22.8q0 4.2-2.6 6.7t-7 2.5H18.8q-4.3 0-7-2.5t-2.6-6.7q0-2 .2-3.7t.5-4 1-3.8 1.4-3.5 2.3-2.9 3-1.9 4-.7q.4 0 1.5.8t2.6 1.7 3.9 1.7 4.8.7 4.8-.7 3.8-1.7 2.6-1.7 1.6-.8q2.1 0 4 .7t3 2 2.2 2.8 1.6 3.5.9 3.9.5 3.9.1 3.7zM23 9q0 3.8-2.7 6.5t-6.5 2.7-6.4-2.7-2.7-6.5 2.6-6.4T13.8 0t6.5 2.7T22.9 9zM48 23q0 5.6-4 9.7t-9.7 4-9.7-4-4-9.7 4-9.7 9.7-4 9.7 4 4 9.7zm20.6 8q0 2.8-2 4.2t-5 1.5H57q-3.7-4.4-9.5-4.6 2.9-4.2 2.9-9.1l-.2-2.4q2.4.8 4.8.8 2 0 4.2-.7t3.5-1.6 1.5-.7q4.5 0 4.5 12.6zM64 9q0 3.8-2.7 6.5T55 18.3t-6.5-2.7-2.7-6.5 2.7-6.4T54.9 0t6.4 2.7T64 9z"/></svg>