<svg id="phone" xmlns="http://www.w3.org/2000/svg" width="50" height="64" viewBox="0 0 50 64"><path d="M50.3 44.3q0 1-.4 2.5t-.7 2.5q-.8 1.7-4.4 3.7-3.3 1.9-6.6 1.9l-2-.2-2-.4q-1-.2-1.6-.5t-2-.8-1.8-.6q-3.5-1.3-6.2-3-4.6-2.8-9.5-7.7t-7.7-9.4q-1.7-2.8-3-6.3l-.6-1.7q-.6-1.4-.7-2t-.5-1.7-.5-2-.1-2q0-3.2 1.8-6.6 2-3.6 3.8-4.3.9-.4 2.5-.8t2.5-.3h.7q.7.3 2 2.8l1 2 1.2 2.2 1.1 1.9.7.9q.6.8.7 1.3t.3 1q0 .7-1 1.8t-2.2 2-2.3 1.8-1 1.7l.2.8.3.7.5.9.4.6q2.7 5 6.2 8.4t8.4 6.2l.7.5.9.5.7.3q.5.3.8.1.6 0 1.6-1t2-2.2 1.9-2.2 1.8-1l1 .2 1.3.8.9.6 1.9 1.1 2.2 1.3q1.2.8 2 1 2.5 1.3 2.7 2v.7z"/></svg>