<svg id="cart" xmlns="http://www.w3.org/2000/svg" width="59" height="64" viewBox="0 0 59 64"><path d="M22.9 54.9q0 1.8-1.4 3.2t-3.2 1.3-3.2-1.3-1.4-3.2 1.4-3.3 3.2-1.3 3.2 1.3 1.4 3.3zm32 0q0 1.8-1.4 3.2t-3.2 1.3-3.2-1.3-1.4-3.2 1.4-3.3 3.2-1.3 3.2 1.3 1.4 3.3zM59.4 16v18.3q0 .8-.6 1.5t-1.4.8L20 40.9l.5 2.5q0 .6-.9 2.3h32.9q.9 0 1.6.7t.7 1.6-.7 1.6-1.6.7H16q-1 0-1.6-.7t-.7-1.6q0-.4.3-1.1t.6-1.3.7-1.4.6-1L9.6 13.6H2.3q-1 0-1.6-.7T0 11.4t.7-1.6 1.6-.7h9.1q.6 0 1 .3t.7.5.5.9.3 1 .2 1 .2 1H57q1 0 1.7.6t.6 1.6z"/></svg>