<svg id="thumbs_up_alt" xmlns="http://www.w3.org/2000/svg" width="64" height="64" viewBox="0 0 64 64"><path d="M9.1 48q0-1-.6-1.6t-1.6-.7-1.7.7-.6 1.6.7 1.6 1.6.7 1.6-.7T9 48zm41.2-20.6q0-1.8-1.4-3.2T45.7 23H33.1q0-2.1 1.8-5.7t1.7-5.8q0-3.5-1.2-5.1T31 4.6q-1 .9-1.4 3t-1 4.5-2.2 3.9l-2.8 3.3-.8 1-1.1 1.5-1.2 1.5q-.8 1-1.5 1.6T17.6 26t-1.5 1-1.2.3h-1.2v22.9H16q.7 0 1.3.3t1.3.4 1.3.4 1.2.5 1 .3Q29.7 55 34.4 55h4.3q6.9 0 6.9-6l-.2-2q1-.6 1.7-1.9t.6-2.6-.6-2.5q1.9-1.8 1.9-4.2 0-1-.4-2t-.9-1.7q1.1 0 2-1.7t.7-2.9zm4.6 0q0 3.2-1.8 5.8.3 1.2.3 2.5 0 2.7-1.3 5.1v1.6q0 3.6-2 6.3 0 5-3.1 7.9t-8.1 2.8h-4.6q-3.4 0-6.8-.8t-7.7-2.3q-4.2-1.4-5-1.4H4.7q-2 0-3.3-1.4T0 50.3V27.4q0-1.9 1.3-3.2t3.3-1.3h9.8q1.2-.9 4.8-5.6 2.1-2.7 3.9-4.6.8-.8 1.2-3t1.1-4.5 2.2-3.9Q29 0 31 0q3 0 5.3 1.2T40 4.8t1.2 6.6q0 3.3-1.7 6.9h6.3q3.7 0 6.4 2.7t2.8 6.4z"/></svg>