<svg id="sneakers" xmlns="http://www.w3.org/2000/svg" width="568" height="568" viewBox="0 0 568 568"><path d="M513 271c-17-3-46-3-81-10l5 29a9 9 0 1 1-17 3l-5-30c-1-3-4-6-7-7l-5-2c-3-1-5 1-5 5l3 14a9 9 0 0 1-18 3l-4-24c0-3-3-7-6-8l-7-3c-3-1-5 0-4 3l2 13a9 9 0 1 1-17 3l-5-26c0-3-3-7-6-9l-8-5c-2-2-4-1-4 3l3 18a9 9 0 0 1-8 10c-5 0-8-3-9-7l-7-45-5-6c-11-15-33-41-51-47-19-7-34 7-37 19-1 6 1 17 3 23l7 12c4 5 6 10 1 14-12 10-34 27-59 36-49 18-58-7-58-7s-11-35-28-48c-5-4-16-5-23-4l-6 3c4 22 21 77 96 113 96 47 289 56 325 57a774 774 0 0 1-205 8C151 358 49 326 22 236l-1 5c-5 14-9 23-9 53-1 6-3 16-6 22-2 8-5 18-6 32v32c0 7 4 15 10 19 4 2 9 5 15 6a506 506 0 0 1 31 8h17c3 1 5 2 5 4s4 3 8 3 9-2 10-4l7-4c2 0 4 2 4 4s3 4 7 4 8-2 10-4c1-3 4-5 6-5s5 2 6 5c2 2 6 4 9 4 4 0 8-2 9-4 2-2 5-2 7 0 3 2 9 4 14 4 4 0 9-2 9-3 1-2 4-4 6-4s6 2 7 4c1 1 6 2 10 1 5-1 10-4 11-6s4-3 5-1c2 2 7 4 12 5 4 0 10 0 12-2s6-3 8-2c2 0 4 2 4 4s4 4 8 4c5 0 10-1 11-3 2-1 5-2 8-1 2 0 4 1 4 3s2 2 5 2l9-2 7-1c2 0 3 2 3 3 0 2 6 3 12 3h1c7 0 12-2 12-4s2-4 4-4 4 2 4 4 5 4 11 4 12-1 14-3h8c2 2 9 3 16 3s12-2 14-4c1-2 4-4 6-4 3-1 5 0 6 2 2 2 8 2 14 1h2c6-2 12-5 13-7 1-3 3-5 4-5 2-1 4 1 6 3 1 2 6 2 11 1 4-1 8-5 9-9 0-4 3-8 6-8 3-1 5 0 5 3 0 2 5 3 11 0 6-2 11-6 11-9 0-2 2-5 4-6s5-1 6 1c1 1 5 0 8-2l7-8c0-3 5-7 10-11 10-10 23-28 17-55-10-41-17-29-53-36z"/></svg>