<svg id="tw" xmlns="http://www.w3.org/2000/svg" width="64" height="64" viewBox="0 0 64 64"><path d="M45.7 21.8q-2 .9-4.3 1.2 2.4-1.4 3.3-4.2-2.3 1.4-4.8 1.8-2.2-2.3-5.4-2.3-3.1 0-5.3 2.2T27 25.8l.1 1.7q-4.6-.3-8.6-2.3t-6.9-5.6q-1 1.8-1 3.8 0 4.1 3.3 6.3-1.7 0-3.6-1v.1q0 2.7 1.8 4.8t4.4 2.6q-1 .3-1.9.3l-1.3-.2q.7 2.3 2.6 3.7t4.4 1.5q-4.2 3.2-9.4 3.2H9.1Q14.4 48 20.6 48q4 0 7.5-1.3t6-3.4 4.3-4.9 2.7-5.7.9-6v-1q2.2-1.6 3.7-4zm9.2-7v34.3q0 4.3-3 7.3t-7.3 3H10.3q-4.3 0-7.3-3t-3-7.3V15q0-4.3 3-7.3t7.3-3h34.3q4.2 0 7.2 3t3 7.3z"/></svg>