<svg id="vk" xmlns="http://www.w3.org/2000/svg" width="69" height="64" viewBox="0 0 69 64"><path d="M68.5 18.6q.8 2.3-5.4 10.5l-2.3 3-2 2.6q-.6.8-1 1.7t-.5 1.5.5 1.3 1.1 1.5 2 2h.2q5 4.7 6.9 8l.2.4q.2.3.2 1t0 1.1-.9 1-2 .5l-9.2.1q-.9.2-2-.2t-1.9-.7l-.7-.5q-1-.7-2.5-2.3t-2.4-2.7-2.2-2.1-2-.6l-.3.2-.6.5q-.4.3-.8 1t-.6 1.9-.2 2.8l-.2 1-.2.6-.2.2q-.6.7-1.9.8h-4q-2.6.1-5.3-.6t-4.7-2-3.7-2.3-2.5-2l-.9-.9-1-1-2.5-3.3-3.8-5.4q-1.9-2.8-4.4-7.5T.2 20L0 19v-.6l.2-.2q.6-.7 2-.7H12q.5 0 .9.2t.5.3l.2.1q.6.4.9 1.1L16 23l1.5 3 .5 1q1 2.1 2 3.7t1.8 2.5 1.5 1.3 1.2.5 1-.2l.1-.1.4-.8.5-1.7.4-2.9q.2-1.9 0-4.5-.1-1.4-.4-2.6t-.5-1.6l-.2-.4q-.9-1.2-3-1.6-.5 0 .2-.8.5-.7 1.3-1.1 2-1 8.6-.9 2.9 0 4.8.5l1.2.5q.5.3.7.9t.4 1 .1 1.7 0 2-.1 2.5 0 3l-.1 1.4V31l.1 1.4.4 1.4q.3.7.8.9l.6.1q.3.1 1-.4t1.3-1.2 1.9-2.4 2.4-3.8q2.1-3.8 3.8-8l.4-.7.4-.4h.1l.2-.2h.5l.7-.1h10.3q1.3-.2 2.2 0t1.1.6z"/></svg>